<svg xmlns="http://www.w3.org/2000/svg" width="36" height="36" viewBox="0 0 36 36" fill="none"><path d="M19.6 0.086L19.605 13.257c0.001 2.08-2.183 3.414-3.997 2.441L2.584 8.715c0.993-1.657 2.242-3.139 3.69-4.391L16.489 13.895c0.541 0.507 1.394-0.043 1.171-0.755L13.697 0.494C15.03 0.171 16.42 0 17.854 0c0.589 0 1.172 0.03 1.746 0.086z" fill="#9B8A15"/><path d="M16.064 36.109L16.058 23.005c-0.001-2.08 2.183-3.414 3.997-2.441L33.084 27.549c-1 1.653-2.255 3.13-3.709 4.376L19.174 22.367c-0.541-0.507-1.394 0.043-1.171 0.755l3.946 12.598c-1.315 0.313-2.686 0.479-4.095 0.479-0.604 0-1.201-0.031-1.79-0.09z" fill="#9B8A15"/><path d="M22.011 16.77l9.46-10.376c-1.234-1.474-2.696-2.745-4.332-3.757L20.231 15.877c-0.96 1.839 0.356 4.053 2.409 4.052l12.978-0.006c0.06-0.6 0.09-1.208 0.09-1.824 0-1.44-0.184-2.836-0.529-4.168h-5.548c-0.717 0-1.123-0.82-0.69-1.394l2.548-3.537" fill="#9B8A15"/><path d="M13.69 19.429L4.23 29.805c1.234 1.474 2.696 2.745 4.332 3.757l6.907-13.24c0.96-1.839-0.356-4.053-2.409-4.052L0.082 16.276c-0.06 0.6-0.09 1.208-0.09 1.824 0 1.44 0.184 2.836 0.529 4.168h5.548c0.717 0 1.123 0.82 0.69 1.394L4.211 27.2" fill="#9B8A15"/></svg>
